<svg width="16" height="16" viewBox="0 0 16 16" fill="none" xmlns="http://www.w3.org/2000/svg">
<path d="M11.8889 6.42859H4.11111C3.49746 6.42859 3 7.07981 3 7.88313V12.974C3 13.7774 3.49746 14.4286 4.11111 14.4286H11.8889C12.5025 14.4286 13 13.7774 13 12.974V7.88313C13 7.07981 12.5025 6.42859 11.8889 6.42859Z" stroke="#9A99A2" stroke-linecap="round" stroke-linejoin="round"/>
<path d="M5 6.28571V4.50793C5 3.91856 5.31607 3.35333 5.87868 2.93658C6.44129 2.51983 7.20435 2.28571 8 2.28571C8.79565 2.28571 9.55871 2.51983 10.1213 2.93658C10.6839 3.35333 11 3.91856 11 4.50793V6.28571" stroke="#9A99A2" stroke-linecap="round" stroke-linejoin="round"/>
</svg>
